<svg xmlns="http://www.w3.org/2000/svg" viewBox="0 0 584.94 142.73"><defs><style>.cls-1{fill:#231815;}.cls-2{fill:none;}</style></defs><title>アセット 1</title><g id="レイヤー_2" data-name="レイヤー 2"><g id="レイヤー_1-2" data-name="レイヤー 1"><rect class="cls-1" x="10.6" y="16.58" width="47.83" height="11.96"/><rect class="cls-1" x="46.47" y="25.55" width="11.96" height="23.91"/><rect class="cls-1" x="16.58" y="10.6" width="11.96" height="41.85"/><path class="cls-1" d="M10.6,58.43s6,0,6-6,12-6,12,0-6,6-6,6Z"/><path class="cls-1" d="M37.5,58.43s9,0,9-9,12-9,12,0-9,9-9,9Z"/><rect class="cls-1" x="84.3" y="10.6" width="47.83" height="11.96"/><path class="cls-1" d="M84.3,58.43s35.87,0,35.87-35.87c0-3,12-3,12,0,0,35.87-35.87,35.87-35.87,35.87"/><path class="cls-1" d="M132.13,58.43s-8,0-8-12h-12c0,12,8,12,8,12Z"/><rect class="cls-1" x="158" y="46.47" width="47.83" height="11.96"/><rect class="cls-1" x="163.98" y="10.6" width="35.87" height="11.96"/><rect class="cls-1" x="231.7" y="10.6" width="41.85" height="11.96"/><path class="cls-1" d="M279.53,28.54s0-6-6-6-6-12,0-12,6,6,6,6Z"/><rect class="cls-1" x="231.7" y="25.55" width="41.85" height="11.96"/><path class="cls-1" d="M279.53,43.48s0-6-6-6-6-11.95,0-11.95,6,6,6,6Z"/><rect class="cls-1" x="231.7" y="40.49" width="41.85" height="11.96"/><path class="cls-1" d="M279.53,58.43s0-6-6-6-6-12,0-12,6,6,6,6Z"/><rect class="cls-1" x="305.41" y="46.47" width="47.83" height="11.96"/><rect class="cls-1" x="311.38" y="10.6" width="35.87" height="11.96"/><rect class="cls-1" x="379.11" y="16.58" width="47.83" height="11.96"/><rect class="cls-1" x="414.98" y="25.55" width="11.96" height="23.91"/><rect class="cls-1" x="385.08" y="10.6" width="11.96" height="41.85"/><path class="cls-1" d="M379.11,58.43s6,0,6-6,12-6,12,0-6,6-6,6Z"/><path class="cls-1" d="M406,58.43s9,0,9-9,11.95-9,11.95,0-9,9-9,9Z"/><rect class="cls-1" x="452.83" y="10.6" width="23.91" height="11.96"/><rect class="cls-1" x="452.78" y="46.47" width="23.96" height="11.96"/><path class="cls-1" d="M500.66,10.6s0,35.87-23.91,35.87-23.92,12,0,12,23.91-35.87,23.91-35.87Z"/><rect class="cls-1" x="10.6" y="90.28" width="47.83" height="11.96"/><rect class="cls-1" x="46.47" y="99.25" width="11.96" height="23.91"/><rect class="cls-1" x="16.58" y="84.3" width="11.96" height="41.85"/><path class="cls-1" d="M10.6,132.13s6,0,6-6,12-6,12,0-6,6-6,6Z"/><path class="cls-1" d="M37.5,132.13s9,0,9-9,12-9,12,0-9,9-9,9Z"/><rect class="cls-1" x="84.3" y="84.3" width="47.83" height="11.96"/><path class="cls-1" d="M84.3,132.13s35.87,0,35.87-35.87c0-3,12-3,12,0,0,35.87-35.87,35.87-35.87,35.87"/><path class="cls-1" d="M132.13,132.13s-8,0-8-12h-12c0,12,8,12,8,12Z"/><rect class="cls-1" x="158" y="120.17" width="47.83" height="11.96"/><rect class="cls-1" x="163.98" y="84.3" width="35.87" height="11.96"/><rect class="cls-1" x="237.68" y="84.3" width="35.87" height="11.96"/><rect class="cls-1" x="231.7" y="102.24" width="47.83" height="11.96"/><path class="cls-1" d="M231.7,132.13s35.87,0,35.87-17.94h12c0,17.94-35.87,17.94-35.87,17.94Z"/><rect class="cls-2" x="526.51" y="10.6" width="47.83" height="47.83"/><rect class="cls-1" x="544.44" y="28.54" width="11.96" height="11.96"/><path class="cls-1" d="M69,69H0V0H69ZM1,68H68V1H1Z"/><path class="cls-1" d="M142.73,69h-69V0h69Zm-68-1h67V1h-67Z"/><path class="cls-1" d="M216.43,69h-69V0h69Zm-68-1h67V1h-67Z"/><path class="cls-1" d="M290.13,69h-69V0h69Zm-68-1h67V1h-67Z"/><path class="cls-1" d="M363.83,69h-69V0h69Zm-68-1h67V1h-67Z"/><path class="cls-1" d="M437.54,69h-69V0h69Zm-68-1h67V1h-67Z"/><path class="cls-1" d="M511.24,69h-69V0h69Zm-68-1h67V1h-67Z"/><path class="cls-1" d="M584.94,69h-69V0h69Zm-68-1h67V1h-67Z"/><path class="cls-1" d="M69,142.73H0v-69H69Zm-68-1H68v-67H1Z"/><path class="cls-1" d="M142.73,142.73h-69v-69h69Zm-68-1h67v-67h-67Z"/><path class="cls-1" d="M216.43,142.73h-69v-69h69Zm-68-1h67v-67h-67Z"/><path class="cls-1" d="M290.13,142.73h-69v-69h69Zm-68-1h67v-67h-67Z"/><rect class="cls-1" x="295.3" y="74.2" width="68.03" height="68.03"/><path class="cls-1" d="M363.83,142.73h-69v-69h69Zm-68-1h67v-67h-67Z"/><rect class="cls-1" x="369" y="74.2" width="68.03" height="68.03"/><path class="cls-1" d="M437.54,142.73h-69v-69h69Zm-68-1h67v-67h-67Z"/><rect class="cls-1" x="442.7" y="74.2" width="68.03" height="68.03"/><path class="cls-1" d="M511.24,142.73h-69v-69h69Zm-68-1h67v-67h-67Z"/><rect class="cls-1" x="516.41" y="74.2" width="68.03" height="68.03"/><path class="cls-1" d="M584.94,142.73h-69v-69h69Zm-68-1h67v-67h-67Z"/></g></g></svg>